<mxfile host="Electron" modified="2024-01-12T16:34:25.071Z" agent="Mozilla/5.0 (Windows NT 10.0; Win64; x64) AppleWebKit/537.36 (KHTML, like Gecko) draw.io/22.1.16 Chrome/120.0.6099.109 Electron/28.1.0 Safari/537.36" etag="R0H7LeVLQl-5TFzU1ZLN" version="22.1.16" type="device">
  <diagram name="Страница — 1" id="KuR-0Ju_989uyR10gVeu">
    <mxGraphModel dx="1701" dy="808" grid="1" gridSize="10" guides="1" tooltips="1" connect="1" arrows="1" fold="1" page="1" pageScale="1" pageWidth="827" pageHeight="1169" math="0" shadow="0">
      <root>
        <mxCell id="0" />
        <mxCell id="1" parent="0" />
        <mxCell id="ZUqS0PcJQZrkpELGykax-1" value="Клиент" style="shape=umlActor;verticalLabelPosition=bottom;verticalAlign=top;html=1;" vertex="1" parent="1">
          <mxGeometry x="100" y="90" width="30" height="60" as="geometry" />
        </mxCell>
        <mxCell id="ZUqS0PcJQZrkpELGykax-2" value="Сайт-агрегатор&amp;nbsp;" style="html=1;whiteSpace=wrap;" vertex="1" parent="1">
          <mxGeometry x="240" y="90" width="110" height="50" as="geometry" />
        </mxCell>
        <mxCell id="ZUqS0PcJQZrkpELGykax-3" value="API авиакомпании &quot;Добролёт&quot;" style="html=1;whiteSpace=wrap;" vertex="1" parent="1">
          <mxGeometry x="430" y="90" width="110" height="50" as="geometry" />
        </mxCell>
        <mxCell id="ZUqS0PcJQZrkpELGykax-4" value="API авиакомпании &quot;Чистое небо&quot;" style="html=1;whiteSpace=wrap;" vertex="1" parent="1">
          <mxGeometry x="630" y="90" width="110" height="50" as="geometry" />
        </mxCell>
        <mxCell id="ZUqS0PcJQZrkpELGykax-5" value="API авиакомпании &quot;Авионика&quot;" style="html=1;whiteSpace=wrap;" vertex="1" parent="1">
          <mxGeometry x="840" y="90" width="110" height="50" as="geometry" />
        </mxCell>
        <mxCell id="ZUqS0PcJQZrkpELGykax-7" value="API платёжного сервиса &quot;Лёгкие платежи&quot;" style="html=1;whiteSpace=wrap;" vertex="1" parent="1">
          <mxGeometry x="1060" y="90" width="110" height="50" as="geometry" />
        </mxCell>
        <mxCell id="ZUqS0PcJQZrkpELGykax-9" value="Банк-эмитент" style="shape=umlActor;verticalLabelPosition=bottom;verticalAlign=top;html=1;" vertex="1" parent="1">
          <mxGeometry x="1450" y="90" width="30" height="60" as="geometry" />
        </mxCell>
        <mxCell id="ZUqS0PcJQZrkpELGykax-10" value="Банк-эквайер" style="shape=umlActor;verticalLabelPosition=bottom;verticalAlign=top;html=1;" vertex="1" parent="1">
          <mxGeometry x="1280" y="90" width="30" height="60" as="geometry" />
        </mxCell>
        <mxCell id="ZUqS0PcJQZrkpELGykax-13" value="" style="endArrow=none;dashed=1;html=1;rounded=0;" edge="1" parent="1" source="ZUqS0PcJQZrkpELGykax-71">
          <mxGeometry width="50" height="50" relative="1" as="geometry">
            <mxPoint x="1460" y="1351.5999755859375" as="sourcePoint" />
            <mxPoint x="1464.5" y="160" as="targetPoint" />
          </mxGeometry>
        </mxCell>
        <mxCell id="ZUqS0PcJQZrkpELGykax-14" value="" style="endArrow=none;dashed=1;html=1;rounded=0;" edge="1" parent="1" source="ZUqS0PcJQZrkpELGykax-69">
          <mxGeometry width="50" height="50" relative="1" as="geometry">
            <mxPoint x="1300" y="1251.5999755859375" as="sourcePoint" />
            <mxPoint x="1294.5" y="170" as="targetPoint" />
          </mxGeometry>
        </mxCell>
        <mxCell id="ZUqS0PcJQZrkpELGykax-15" value="" style="endArrow=none;dashed=1;html=1;rounded=0;" edge="1" parent="1" source="ZUqS0PcJQZrkpELGykax-22">
          <mxGeometry width="50" height="50" relative="1" as="geometry">
            <mxPoint x="114.5" y="671.5999755859375" as="sourcePoint" />
            <mxPoint x="114.5" y="170" as="targetPoint" />
          </mxGeometry>
        </mxCell>
        <mxCell id="ZUqS0PcJQZrkpELGykax-16" value="" style="endArrow=none;dashed=1;html=1;rounded=0;" edge="1" parent="1" source="ZUqS0PcJQZrkpELGykax-23">
          <mxGeometry width="50" height="50" relative="1" as="geometry">
            <mxPoint x="295" y="670" as="sourcePoint" />
            <mxPoint x="294.5" y="140" as="targetPoint" />
          </mxGeometry>
        </mxCell>
        <mxCell id="ZUqS0PcJQZrkpELGykax-17" value="" style="endArrow=none;dashed=1;html=1;rounded=0;" edge="1" parent="1" source="ZUqS0PcJQZrkpELGykax-27">
          <mxGeometry width="50" height="50" relative="1" as="geometry">
            <mxPoint x="485" y="670" as="sourcePoint" />
            <mxPoint x="484.5" y="140" as="targetPoint" />
          </mxGeometry>
        </mxCell>
        <mxCell id="ZUqS0PcJQZrkpELGykax-18" value="" style="endArrow=none;dashed=1;html=1;rounded=0;" edge="1" parent="1" source="ZUqS0PcJQZrkpELGykax-99">
          <mxGeometry width="50" height="50" relative="1" as="geometry">
            <mxPoint x="685" y="920" as="sourcePoint" />
            <mxPoint x="684.5" y="140" as="targetPoint" />
          </mxGeometry>
        </mxCell>
        <mxCell id="ZUqS0PcJQZrkpELGykax-19" value="" style="endArrow=none;dashed=1;html=1;rounded=0;" edge="1" parent="1" source="ZUqS0PcJQZrkpELGykax-31">
          <mxGeometry width="50" height="50" relative="1" as="geometry">
            <mxPoint x="900.5" y="670" as="sourcePoint" />
            <mxPoint x="900" y="140" as="targetPoint" />
          </mxGeometry>
        </mxCell>
        <mxCell id="ZUqS0PcJQZrkpELGykax-21" value="GET&lt;br&gt;1. Войти на сайт&amp;nbsp;" style="html=1;verticalAlign=bottom;endArrow=block;curved=0;rounded=0;" edge="1" parent="1">
          <mxGeometry width="80" relative="1" as="geometry">
            <mxPoint x="120" y="190" as="sourcePoint" />
            <mxPoint x="290" y="190" as="targetPoint" />
          </mxGeometry>
        </mxCell>
        <mxCell id="ZUqS0PcJQZrkpELGykax-22" value="" style="html=1;points=[[0,0,0,0,5],[0,1,0,0,-5],[1,0,0,0,5],[1,1,0,0,-5]];perimeter=orthogonalPerimeter;outlineConnect=0;targetShapes=umlLifeline;portConstraint=eastwest;newEdgeStyle={&quot;curved&quot;:0,&quot;rounded&quot;:0};" vertex="1" parent="1">
          <mxGeometry x="100" y="1230" width="20" height="150" as="geometry" />
        </mxCell>
        <mxCell id="ZUqS0PcJQZrkpELGykax-24" value="" style="endArrow=none;dashed=1;html=1;rounded=0;" edge="1" parent="1" target="ZUqS0PcJQZrkpELGykax-23">
          <mxGeometry width="50" height="50" relative="1" as="geometry">
            <mxPoint x="295" y="670" as="sourcePoint" />
            <mxPoint x="294.5" y="140" as="targetPoint" />
          </mxGeometry>
        </mxCell>
        <mxCell id="ZUqS0PcJQZrkpELGykax-23" value="" style="html=1;points=[[0,0,0,0,5],[0,1,0,0,-5],[1,0,0,0,5],[1,1,0,0,-5]];perimeter=orthogonalPerimeter;outlineConnect=0;targetShapes=umlLifeline;portConstraint=eastwest;newEdgeStyle={&quot;curved&quot;:0,&quot;rounded&quot;:0};" vertex="1" parent="1">
          <mxGeometry x="290" y="170" width="20" height="1240" as="geometry" />
        </mxCell>
        <mxCell id="ZUqS0PcJQZrkpELGykax-25" value="" style="html=1;points=[[0,0,0,0,5],[0,1,0,0,-5],[1,0,0,0,5],[1,1,0,0,-5]];perimeter=orthogonalPerimeter;outlineConnect=0;targetShapes=umlLifeline;portConstraint=eastwest;newEdgeStyle={&quot;curved&quot;:0,&quot;rounded&quot;:0};" vertex="1" parent="1">
          <mxGeometry x="300" y="270" width="20" height="310" as="geometry" />
        </mxCell>
        <mxCell id="ZUqS0PcJQZrkpELGykax-28" value="" style="endArrow=none;dashed=1;html=1;rounded=0;" edge="1" parent="1" target="ZUqS0PcJQZrkpELGykax-27">
          <mxGeometry width="50" height="50" relative="1" as="geometry">
            <mxPoint x="485" y="840" as="sourcePoint" />
            <mxPoint x="484.5" y="140" as="targetPoint" />
          </mxGeometry>
        </mxCell>
        <mxCell id="ZUqS0PcJQZrkpELGykax-27" value="" style="html=1;points=[[0,0,0,0,5],[0,1,0,0,-5],[1,0,0,0,5],[1,1,0,0,-5]];perimeter=orthogonalPerimeter;outlineConnect=0;targetShapes=umlLifeline;portConstraint=eastwest;newEdgeStyle={&quot;curved&quot;:0,&quot;rounded&quot;:0};" vertex="1" parent="1">
          <mxGeometry x="480" y="290" width="10" height="80" as="geometry" />
        </mxCell>
        <mxCell id="ZUqS0PcJQZrkpELGykax-29" value="" style="html=1;points=[[0,0,0,0,5],[0,1,0,0,-5],[1,0,0,0,5],[1,1,0,0,-5]];perimeter=orthogonalPerimeter;outlineConnect=0;targetShapes=umlLifeline;portConstraint=eastwest;newEdgeStyle={&quot;curved&quot;:0,&quot;rounded&quot;:0};" vertex="1" parent="1">
          <mxGeometry x="680" y="400" width="10" height="80" as="geometry" />
        </mxCell>
        <mxCell id="ZUqS0PcJQZrkpELGykax-30" value="" style="endArrow=none;dashed=1;html=1;rounded=0;" edge="1" parent="1" target="ZUqS0PcJQZrkpELGykax-31">
          <mxGeometry width="50" height="50" relative="1" as="geometry">
            <mxPoint x="901" y="920" as="sourcePoint" />
            <mxPoint x="900" y="140" as="targetPoint" />
          </mxGeometry>
        </mxCell>
        <mxCell id="ZUqS0PcJQZrkpELGykax-31" value="" style="html=1;points=[[0,0,0,0,5],[0,1,0,0,-5],[1,0,0,0,5],[1,1,0,0,-5]];perimeter=orthogonalPerimeter;outlineConnect=0;targetShapes=umlLifeline;portConstraint=eastwest;newEdgeStyle={&quot;curved&quot;:0,&quot;rounded&quot;:0};" vertex="1" parent="1">
          <mxGeometry x="895" y="505" width="10" height="80" as="geometry" />
        </mxCell>
        <mxCell id="ZUqS0PcJQZrkpELGykax-33" value="Ответ&amp;nbsp;" style="html=1;verticalAlign=bottom;endArrow=open;dashed=1;endSize=8;curved=0;rounded=0;" edge="1" parent="1" target="ZUqS0PcJQZrkpELGykax-25">
          <mxGeometry relative="1" as="geometry">
            <mxPoint x="480" y="350" as="sourcePoint" />
            <mxPoint x="400" y="350" as="targetPoint" />
          </mxGeometry>
        </mxCell>
        <mxCell id="ZUqS0PcJQZrkpELGykax-35" value="Ответ&amp;nbsp;" style="html=1;verticalAlign=bottom;endArrow=open;dashed=1;endSize=8;curved=0;rounded=0;" edge="1" parent="1" target="ZUqS0PcJQZrkpELGykax-25">
          <mxGeometry relative="1" as="geometry">
            <mxPoint x="680" y="470" as="sourcePoint" />
            <mxPoint x="600" y="470" as="targetPoint" />
          </mxGeometry>
        </mxCell>
        <mxCell id="ZUqS0PcJQZrkpELGykax-37" value="Ответ&amp;nbsp;" style="html=1;verticalAlign=bottom;endArrow=open;dashed=1;endSize=8;curved=0;rounded=0;" edge="1" parent="1" target="ZUqS0PcJQZrkpELGykax-25">
          <mxGeometry relative="1" as="geometry">
            <mxPoint x="895" y="570" as="sourcePoint" />
            <mxPoint x="815" y="570" as="targetPoint" />
          </mxGeometry>
        </mxCell>
        <mxCell id="ZUqS0PcJQZrkpELGykax-39" value="Авиабилеты, подходящие &lt;br&gt;под запрос поиска&amp;nbsp;" style="html=1;verticalAlign=bottom;endArrow=open;dashed=1;endSize=8;curved=0;rounded=0;" edge="1" parent="1">
          <mxGeometry y="-10" relative="1" as="geometry">
            <mxPoint x="285" y="600" as="sourcePoint" />
            <mxPoint x="130" y="600" as="targetPoint" />
            <Array as="points">
              <mxPoint x="235" y="600" />
            </Array>
            <mxPoint as="offset" />
          </mxGeometry>
        </mxCell>
        <mxCell id="ZUqS0PcJQZrkpELGykax-45" value="POST&lt;br&gt;4. Забронировать&lt;br&gt;выбранный билет&amp;nbsp;" style="html=1;verticalAlign=bottom;endArrow=block;curved=0;rounded=0;" edge="1" parent="1" target="ZUqS0PcJQZrkpELGykax-23">
          <mxGeometry width="80" relative="1" as="geometry">
            <mxPoint x="115" y="660" as="sourcePoint" />
            <mxPoint x="275" y="660" as="targetPoint" />
            <mxPoint as="offset" />
          </mxGeometry>
        </mxCell>
        <mxCell id="ZUqS0PcJQZrkpELGykax-47" value="" style="endArrow=none;dashed=1;html=1;rounded=0;" edge="1" parent="1">
          <mxGeometry width="50" height="50" relative="1" as="geometry">
            <mxPoint x="485" y="1330" as="sourcePoint" />
            <mxPoint x="485" y="820" as="targetPoint" />
          </mxGeometry>
        </mxCell>
        <mxCell id="ZUqS0PcJQZrkpELGykax-51" value="&lt;br&gt;Билет забронирован на 15 мин" style="html=1;verticalAlign=bottom;endArrow=open;dashed=1;endSize=8;curved=0;rounded=0;" edge="1" parent="1">
          <mxGeometry x="0.0588" y="-10" relative="1" as="geometry">
            <mxPoint x="290" y="800" as="sourcePoint" />
            <mxPoint x="120" y="800" as="targetPoint" />
            <mxPoint x="-1" as="offset" />
          </mxGeometry>
        </mxCell>
        <mxCell id="ZUqS0PcJQZrkpELGykax-54" value="" style="endArrow=none;dashed=1;html=1;rounded=0;" edge="1" parent="1">
          <mxGeometry width="50" height="50" relative="1" as="geometry">
            <mxPoint x="1120" y="1532.39990234375" as="sourcePoint" />
            <mxPoint x="1120" y="140" as="targetPoint" />
          </mxGeometry>
        </mxCell>
        <mxCell id="ZUqS0PcJQZrkpELGykax-55" value="GET&lt;br&gt;7. Запросить форму на оплату" style="html=1;verticalAlign=bottom;endArrow=block;curved=0;rounded=0;" edge="1" parent="1" target="ZUqS0PcJQZrkpELGykax-56">
          <mxGeometry x="0.175" width="80" relative="1" as="geometry">
            <mxPoint x="310" y="860" as="sourcePoint" />
            <mxPoint x="1100" y="860" as="targetPoint" />
            <mxPoint x="-1" as="offset" />
          </mxGeometry>
        </mxCell>
        <mxCell id="ZUqS0PcJQZrkpELGykax-57" value="" style="endArrow=none;dashed=1;html=1;rounded=0;" edge="1" parent="1" target="ZUqS0PcJQZrkpELGykax-56">
          <mxGeometry width="50" height="50" relative="1" as="geometry">
            <mxPoint x="1120" y="938" as="sourcePoint" />
            <mxPoint x="1120" y="140" as="targetPoint" />
          </mxGeometry>
        </mxCell>
        <mxCell id="ZUqS0PcJQZrkpELGykax-56" value="" style="html=1;points=[[0,0,0,0,5],[0,1,0,0,-5],[1,0,0,0,5],[1,1,0,0,-5]];perimeter=orthogonalPerimeter;outlineConnect=0;targetShapes=umlLifeline;portConstraint=eastwest;newEdgeStyle={&quot;curved&quot;:0,&quot;rounded&quot;:0};" vertex="1" parent="1">
          <mxGeometry x="1110" y="850" width="20" height="120" as="geometry" />
        </mxCell>
        <mxCell id="ZUqS0PcJQZrkpELGykax-59" value="Ответ &lt;br&gt;Форма на оплату" style="html=1;verticalAlign=bottom;endArrow=open;dashed=1;endSize=8;curved=0;rounded=0;" edge="1" parent="1">
          <mxGeometry x="-0.175" relative="1" as="geometry">
            <mxPoint x="1110" y="930" as="sourcePoint" />
            <mxPoint x="310" y="930" as="targetPoint" />
            <mxPoint x="1" as="offset" />
          </mxGeometry>
        </mxCell>
        <mxCell id="ZUqS0PcJQZrkpELGykax-62" value="POST&lt;br&gt;9. Передать данные для оплаты" style="html=1;verticalAlign=bottom;endArrow=block;curved=0;rounded=0;" edge="1" parent="1" target="ZUqS0PcJQZrkpELGykax-64">
          <mxGeometry x="0.1824" y="10" width="80" relative="1" as="geometry">
            <mxPoint x="320" y="1020" as="sourcePoint" />
            <mxPoint x="1110" y="1020" as="targetPoint" />
            <mxPoint x="-1" as="offset" />
          </mxGeometry>
        </mxCell>
        <mxCell id="ZUqS0PcJQZrkpELGykax-65" value="" style="endArrow=none;dashed=1;html=1;rounded=0;" edge="1" parent="1" target="ZUqS0PcJQZrkpELGykax-64">
          <mxGeometry width="50" height="50" relative="1" as="geometry">
            <mxPoint x="1120" y="1090" as="sourcePoint" />
            <mxPoint x="1120" y="140" as="targetPoint" />
          </mxGeometry>
        </mxCell>
        <mxCell id="ZUqS0PcJQZrkpELGykax-64" value="" style="html=1;points=[[0,0,0,0,5],[0,1,0,0,-5],[1,0,0,0,5],[1,1,0,0,-5]];perimeter=orthogonalPerimeter;outlineConnect=0;targetShapes=umlLifeline;portConstraint=eastwest;newEdgeStyle={&quot;curved&quot;:0,&quot;rounded&quot;:0};" vertex="1" parent="1">
          <mxGeometry x="1115" y="990" width="10" height="230" as="geometry" />
        </mxCell>
        <mxCell id="ZUqS0PcJQZrkpELGykax-68" value="POST&lt;br&gt;10. Передать данные &lt;br&gt;для оплаты" style="html=1;verticalAlign=bottom;endArrow=block;curved=0;rounded=0;" edge="1" parent="1" target="ZUqS0PcJQZrkpELGykax-69">
          <mxGeometry y="9" width="80" relative="1" as="geometry">
            <mxPoint x="1130" y="1099.33" as="sourcePoint" />
            <mxPoint x="1300" y="1100" as="targetPoint" />
            <mxPoint as="offset" />
          </mxGeometry>
        </mxCell>
        <mxCell id="ZUqS0PcJQZrkpELGykax-70" value="" style="endArrow=none;dashed=1;html=1;rounded=0;" edge="1" parent="1" target="ZUqS0PcJQZrkpELGykax-69">
          <mxGeometry width="50" height="50" relative="1" as="geometry">
            <mxPoint x="1300" y="1251.5999755859375" as="sourcePoint" />
            <mxPoint x="1294.5" y="170" as="targetPoint" />
          </mxGeometry>
        </mxCell>
        <mxCell id="ZUqS0PcJQZrkpELGykax-69" value="" style="html=1;points=[[0,0,0,0,5],[0,1,0,0,-5],[1,0,0,0,5],[1,1,0,0,-5]];perimeter=orthogonalPerimeter;outlineConnect=0;targetShapes=umlLifeline;portConstraint=eastwest;newEdgeStyle={&quot;curved&quot;:0,&quot;rounded&quot;:0};" vertex="1" parent="1">
          <mxGeometry x="1290" y="1080" width="10" height="80" as="geometry" />
        </mxCell>
        <mxCell id="ZUqS0PcJQZrkpELGykax-72" value="" style="endArrow=none;dashed=1;html=1;rounded=0;" edge="1" parent="1" target="ZUqS0PcJQZrkpELGykax-71">
          <mxGeometry width="50" height="50" relative="1" as="geometry">
            <mxPoint x="1460" y="1351.5999755859375" as="sourcePoint" />
            <mxPoint x="1464.5" y="160" as="targetPoint" />
          </mxGeometry>
        </mxCell>
        <mxCell id="ZUqS0PcJQZrkpELGykax-71" value="" style="html=1;points=[[0,0,0,0,5],[0,1,0,0,-5],[1,0,0,0,5],[1,1,0,0,-5]];perimeter=orthogonalPerimeter;outlineConnect=0;targetShapes=umlLifeline;portConstraint=eastwest;newEdgeStyle={&quot;curved&quot;:0,&quot;rounded&quot;:0};" vertex="1" parent="1">
          <mxGeometry x="1450" y="1080" width="10" height="80" as="geometry" />
        </mxCell>
        <mxCell id="ZUqS0PcJQZrkpELGykax-79" value="Данные об оплате" style="html=1;verticalAlign=bottom;endArrow=open;dashed=1;endSize=8;curved=0;rounded=0;entryX=1;entryY=0.79;entryDx=0;entryDy=0;entryPerimeter=0;" edge="1" parent="1" target="ZUqS0PcJQZrkpELGykax-23">
          <mxGeometry relative="1" as="geometry">
            <mxPoint x="1290" y="1150" as="sourcePoint" />
            <mxPoint x="495" y="1150" as="targetPoint" />
          </mxGeometry>
        </mxCell>
        <mxCell id="ZUqS0PcJQZrkpELGykax-82" value="" style="endArrow=none;dashed=1;html=1;rounded=0;" edge="1" parent="1">
          <mxGeometry width="50" height="50" relative="1" as="geometry">
            <mxPoint x="485" y="1350" as="sourcePoint" />
            <mxPoint x="485" y="1310" as="targetPoint" />
          </mxGeometry>
        </mxCell>
        <mxCell id="ZUqS0PcJQZrkpELGykax-83" value="POST&lt;br&gt;13. Подтверждение оплаты" style="html=1;verticalAlign=bottom;endArrow=block;curved=0;rounded=0;" edge="1" parent="1" target="ZUqS0PcJQZrkpELGykax-102">
          <mxGeometry width="80" relative="1" as="geometry">
            <mxPoint x="310" y="1240" as="sourcePoint" />
            <mxPoint x="490" y="1240" as="targetPoint" />
          </mxGeometry>
        </mxCell>
        <mxCell id="ZUqS0PcJQZrkpELGykax-84" value="14. Завершение брони&amp;nbsp;" style="html=1;verticalAlign=bottom;endArrow=block;curved=0;rounded=0;" edge="1" parent="1" target="ZUqS0PcJQZrkpELGykax-99">
          <mxGeometry x="-0.3333" y="20" width="80" relative="1" as="geometry">
            <mxPoint x="710" y="1240" as="sourcePoint" />
            <mxPoint x="710" y="1290" as="targetPoint" />
            <Array as="points">
              <mxPoint x="760" y="1240" />
              <mxPoint x="760" y="1290" />
            </Array>
            <mxPoint y="-1" as="offset" />
          </mxGeometry>
        </mxCell>
        <mxCell id="ZUqS0PcJQZrkpELGykax-86" value="Авиаблиты" style="html=1;verticalAlign=bottom;endArrow=open;dashed=1;endSize=8;curved=0;rounded=0;" edge="1" parent="1">
          <mxGeometry x="0.1765" y="-10" relative="1" as="geometry">
            <mxPoint x="290" y="1340" as="sourcePoint" />
            <mxPoint x="120" y="1340" as="targetPoint" />
            <Array as="points">
              <mxPoint x="240" y="1340" />
              <mxPoint x="210" y="1340" />
            </Array>
            <mxPoint as="offset" />
          </mxGeometry>
        </mxCell>
        <mxCell id="ZUqS0PcJQZrkpELGykax-88" value="GET&lt;br&gt;2. Запросить авиабилеты&amp;nbsp;&lt;br&gt;по параметрам поиска" style="html=1;verticalAlign=bottom;endArrow=block;curved=0;rounded=0;" edge="1" parent="1">
          <mxGeometry x="-0.0286" width="80" relative="1" as="geometry">
            <mxPoint x="115" y="320" as="sourcePoint" />
            <mxPoint x="290" y="320" as="targetPoint" />
            <mxPoint as="offset" />
          </mxGeometry>
        </mxCell>
        <mxCell id="ZUqS0PcJQZrkpELGykax-91" value="" style="endArrow=open;endFill=1;endSize=12;html=1;rounded=0;" edge="1" parent="1">
          <mxGeometry width="160" relative="1" as="geometry">
            <mxPoint x="320" y="320" as="sourcePoint" />
            <mxPoint x="480" y="320" as="targetPoint" />
          </mxGeometry>
        </mxCell>
        <mxCell id="ZUqS0PcJQZrkpELGykax-92" value="GET&lt;br style=&quot;border-color: var(--border-color); font-size: 11px;&quot;&gt;&lt;span style=&quot;font-size: 11px; background-color: rgb(255, 255, 255);&quot;&gt;3.1. Собрать данные о доступных&lt;/span&gt;&lt;br style=&quot;border-color: var(--border-color); font-size: 11px;&quot;&gt;&lt;span style=&quot;font-size: 11px; background-color: rgb(255, 255, 255);&quot;&gt;авабилетах&lt;/span&gt;" style="text;html=1;align=center;verticalAlign=middle;resizable=0;points=[];autosize=1;strokeColor=none;fillColor=none;" vertex="1" parent="1">
          <mxGeometry x="300" y="273" width="200" height="60" as="geometry" />
        </mxCell>
        <mxCell id="ZUqS0PcJQZrkpELGykax-93" value="" style="endArrow=open;endFill=1;endSize=12;html=1;rounded=0;entryX=0;entryY=0.25;entryDx=0;entryDy=0;entryPerimeter=0;" edge="1" parent="1" target="ZUqS0PcJQZrkpELGykax-29">
          <mxGeometry width="160" relative="1" as="geometry">
            <mxPoint x="320" y="420" as="sourcePoint" />
            <mxPoint x="440" y="430" as="targetPoint" />
          </mxGeometry>
        </mxCell>
        <mxCell id="ZUqS0PcJQZrkpELGykax-95" value="GET&lt;br style=&quot;border-color: var(--border-color); background-color: rgb(251, 251, 251);&quot;&gt;&lt;span style=&quot;border-color: var(--border-color);&quot;&gt;3.2 Собрать данные о доступных&lt;/span&gt;&lt;br style=&quot;border-color: var(--border-color); background-color: rgb(251, 251, 251);&quot;&gt;&lt;span style=&quot;border-color: var(--border-color);&quot;&gt;авабилетах&lt;/span&gt;" style="edgeLabel;html=1;align=center;verticalAlign=middle;resizable=0;points=[];" vertex="1" connectable="0" parent="ZUqS0PcJQZrkpELGykax-93">
          <mxGeometry x="-0.2059" y="2" relative="1" as="geometry">
            <mxPoint as="offset" />
          </mxGeometry>
        </mxCell>
        <mxCell id="ZUqS0PcJQZrkpELGykax-94" value="" style="endArrow=open;endFill=1;endSize=12;html=1;rounded=0;" edge="1" parent="1">
          <mxGeometry width="160" relative="1" as="geometry">
            <mxPoint x="320" y="520" as="sourcePoint" />
            <mxPoint x="890" y="520" as="targetPoint" />
          </mxGeometry>
        </mxCell>
        <mxCell id="ZUqS0PcJQZrkpELGykax-96" value="GET&lt;br style=&quot;border-color: var(--border-color); font-size: 11px;&quot;&gt;3.3 Собрать данные о доступных&lt;br style=&quot;border-color: var(--border-color); font-size: 11px;&quot;&gt;&lt;span style=&quot;border-color: var(--border-color); font-size: 11px; background-color: rgb(255, 255, 255);&quot;&gt;авабилетах&lt;/span&gt;" style="text;html=1;align=center;verticalAlign=middle;resizable=0;points=[];autosize=1;strokeColor=none;fillColor=none;" vertex="1" parent="1">
          <mxGeometry x="505" y="483" width="210" height="60" as="geometry" />
        </mxCell>
        <mxCell id="ZUqS0PcJQZrkpELGykax-98" value="par" style="shape=umlFrame;whiteSpace=wrap;html=1;pointerEvents=0;" vertex="1" parent="1">
          <mxGeometry x="210" y="230" width="720" height="360" as="geometry" />
        </mxCell>
        <mxCell id="ZUqS0PcJQZrkpELGykax-100" value="" style="endArrow=none;dashed=1;html=1;rounded=0;" edge="1" parent="1" target="ZUqS0PcJQZrkpELGykax-99">
          <mxGeometry width="50" height="50" relative="1" as="geometry">
            <mxPoint x="690" y="1431.0667317708333" as="sourcePoint" />
            <mxPoint x="684.5" y="140" as="targetPoint" />
          </mxGeometry>
        </mxCell>
        <mxCell id="ZUqS0PcJQZrkpELGykax-99" value="" style="html=1;points=[[0,0,0,0,5],[0,1,0,0,-5],[1,0,0,0,5],[1,1,0,0,-5]];perimeter=orthogonalPerimeter;outlineConnect=0;targetShapes=umlLifeline;portConstraint=eastwest;newEdgeStyle={&quot;curved&quot;:0,&quot;rounded&quot;:0};" vertex="1" parent="1">
          <mxGeometry x="670" y="670" width="30" height="650" as="geometry" />
        </mxCell>
        <mxCell id="ZUqS0PcJQZrkpELGykax-101" value="POST&lt;br&gt;5. Забронировать&lt;br&gt;выбранный билет&amp;nbsp;" style="html=1;verticalAlign=bottom;endArrow=block;curved=0;rounded=0;" edge="1" parent="1" target="ZUqS0PcJQZrkpELGykax-99">
          <mxGeometry width="80" relative="1" as="geometry">
            <mxPoint x="310" y="690" as="sourcePoint" />
            <mxPoint x="390" y="690" as="targetPoint" />
          </mxGeometry>
        </mxCell>
        <mxCell id="ZUqS0PcJQZrkpELGykax-102" value="" style="html=1;points=[[0,0,0,0,5],[0,1,0,0,-5],[1,0,0,0,5],[1,1,0,0,-5]];perimeter=orthogonalPerimeter;outlineConnect=0;targetShapes=umlLifeline;portConstraint=eastwest;newEdgeStyle={&quot;curved&quot;:0,&quot;rounded&quot;:0};" vertex="1" parent="1">
          <mxGeometry x="690" y="710" width="20" height="540" as="geometry" />
        </mxCell>
        <mxCell id="ZUqS0PcJQZrkpELGykax-103" value="6. Создание брони&lt;br&gt;(Т=15)" style="html=1;verticalAlign=bottom;endArrow=block;curved=0;rounded=0;" edge="1" parent="1" target="ZUqS0PcJQZrkpELGykax-102">
          <mxGeometry x="-0.2941" y="10" width="80" relative="1" as="geometry">
            <mxPoint x="700" y="690" as="sourcePoint" />
            <mxPoint x="760" y="750" as="targetPoint" />
            <Array as="points">
              <mxPoint x="760" y="690" />
              <mxPoint x="760" y="750" />
            </Array>
            <mxPoint as="offset" />
          </mxGeometry>
        </mxCell>
        <mxCell id="ZUqS0PcJQZrkpELGykax-104" value="Ответ&amp;nbsp;&lt;br&gt;Информация о брони&amp;nbsp;" style="html=1;verticalAlign=bottom;endArrow=open;dashed=1;endSize=8;curved=0;rounded=0;" edge="1" parent="1" target="ZUqS0PcJQZrkpELGykax-23">
          <mxGeometry relative="1" as="geometry">
            <mxPoint x="690" y="770" as="sourcePoint" />
            <mxPoint x="610" y="770" as="targetPoint" />
          </mxGeometry>
        </mxCell>
        <mxCell id="ZUqS0PcJQZrkpELGykax-105" value="Форма на опалту" style="html=1;verticalAlign=bottom;endArrow=open;dashed=1;endSize=8;curved=0;rounded=0;" edge="1" parent="1" source="ZUqS0PcJQZrkpELGykax-23">
          <mxGeometry relative="1" as="geometry">
            <mxPoint x="280" y="970" as="sourcePoint" />
            <mxPoint x="120" y="970" as="targetPoint" />
          </mxGeometry>
        </mxCell>
        <mxCell id="ZUqS0PcJQZrkpELGykax-106" value="POST&lt;br&gt;8. Оплатить авиабилет" style="html=1;verticalAlign=bottom;endArrow=block;curved=0;rounded=0;" edge="1" parent="1" target="ZUqS0PcJQZrkpELGykax-23">
          <mxGeometry width="80" relative="1" as="geometry">
            <mxPoint x="110" y="1000" as="sourcePoint" />
            <mxPoint x="190" y="1000" as="targetPoint" />
          </mxGeometry>
        </mxCell>
        <mxCell id="ZUqS0PcJQZrkpELGykax-107" value="" style="html=1;verticalAlign=bottom;endArrow=block;curved=0;rounded=0;" edge="1" parent="1" target="ZUqS0PcJQZrkpELGykax-71">
          <mxGeometry width="80" relative="1" as="geometry">
            <mxPoint x="1300" y="1104.33" as="sourcePoint" />
            <mxPoint x="1380" y="1104.33" as="targetPoint" />
          </mxGeometry>
        </mxCell>
        <mxCell id="ZUqS0PcJQZrkpELGykax-108" value="GET&lt;br&gt;11. Запросить&lt;br&gt;&amp;nbsp;денежные средства" style="edgeLabel;html=1;align=center;verticalAlign=middle;resizable=0;points=[];" vertex="1" connectable="0" parent="ZUqS0PcJQZrkpELGykax-107">
          <mxGeometry x="-0.0009" y="20" relative="1" as="geometry">
            <mxPoint as="offset" />
          </mxGeometry>
        </mxCell>
        <mxCell id="ZUqS0PcJQZrkpELGykax-109" value="" style="endArrow=open;endFill=1;endSize=12;html=1;rounded=0;" edge="1" parent="1">
          <mxGeometry width="160" relative="1" as="geometry">
            <mxPoint x="1460" y="1209" as="sourcePoint" />
            <mxPoint x="110" y="1200" as="targetPoint" />
          </mxGeometry>
        </mxCell>
        <mxCell id="ZUqS0PcJQZrkpELGykax-110" value="12. SMS о переводе денег&amp;nbsp;" style="edgeLabel;html=1;align=center;verticalAlign=middle;resizable=0;points=[];" vertex="1" connectable="0" parent="ZUqS0PcJQZrkpELGykax-109">
          <mxGeometry x="-0.0107" y="-3" relative="1" as="geometry">
            <mxPoint as="offset" />
          </mxGeometry>
        </mxCell>
        <mxCell id="ZUqS0PcJQZrkpELGykax-111" value="" style="endArrow=open;endFill=1;endSize=12;html=1;rounded=0;" edge="1" parent="1" target="ZUqS0PcJQZrkpELGykax-23">
          <mxGeometry width="160" relative="1" as="geometry">
            <mxPoint x="670" y="1310" as="sourcePoint" />
            <mxPoint x="380" y="1320" as="targetPoint" />
          </mxGeometry>
        </mxCell>
        <mxCell id="ZUqS0PcJQZrkpELGykax-112" value="POST&lt;br&gt;15. Данные авиабилета" style="text;html=1;align=center;verticalAlign=middle;resizable=0;points=[];autosize=1;strokeColor=none;fillColor=none;" vertex="1" parent="1">
          <mxGeometry x="450" y="1260" width="160" height="40" as="geometry" />
        </mxCell>
      </root>
    </mxGraphModel>
  </diagram>
</mxfile>
